<svg width="32" height="36" viewBox="0 0 32 36" fill="none" xmlns="http://www.w3.org/2000/svg">
<g filter="url(#filter0_d_2001_506)">
<ellipse cx="16" cy="13.5" rx="12" ry="12.5" fill="#FFC400"/>
</g>
<path d="M25.0182 13.4273C25.0182 16.5673 23.5124 19.3545 21.1741 21.1058L23.476 24.1748C25.1469 22.9254 26.5031 21.3032 27.4369 19.4374C28.3706 17.5716 28.856 15.5137 28.8545 13.4273H25.0182ZM15.4273 3.83636C17.9709 3.83636 20.4104 4.84683 22.2091 6.64548C24.0077 8.44412 25.0182 10.8836 25.0182 13.4273H28.8545C28.8545 9.86614 27.4399 6.45086 24.9218 3.93276C22.4037 1.41465 18.9884 0 15.4273 0V3.83636ZM5.83637 13.4273C5.83637 10.8836 6.84683 8.44412 8.64548 6.64548C10.4441 4.84683 12.8836 3.83636 15.4273 3.83636V0C11.8661 0 8.45086 1.41465 5.93276 3.93276C3.41466 6.45086 2 9.86614 2 13.4273H5.83637ZM9.6804 21.1058C8.48595 20.2136 7.5164 19.0549 6.84902 17.7218C6.18163 16.3887 5.83487 14.9181 5.83637 13.4273H2C1.99851 15.5137 2.48394 17.5716 3.41767 19.4374C4.3514 21.3032 5.70767 22.9254 7.37858 24.1748L9.6804 21.1058ZM13.5033 32.1161C13.4425 29.1913 12.8382 26.3033 11.7213 23.5994L8.17655 25.0668C9.10879 27.3245 9.6171 29.7414 9.66889 32.1967L13.5033 32.1161ZM18.0015 31.0956C17.2022 31.4954 16.3209 31.7035 15.4273 31.7035C14.5337 31.7035 13.6523 31.4954 12.8531 31.0956L11.1382 34.5273C12.4699 35.1931 13.9384 35.5397 15.4273 35.5397C16.9162 35.5397 18.3846 35.1931 19.7163 34.5273L18.0015 31.0956ZM19.1332 23.6013C18.0159 26.3045 17.411 29.1918 17.3493 32.1161L21.1857 32.1967C21.2374 29.7414 21.7458 27.3245 22.678 25.0668L19.1332 23.6013ZM19.7163 34.5273C20.1502 34.3094 20.5164 33.9772 20.7753 33.5665C21.0343 33.1557 21.1762 32.6821 21.1857 32.1967L17.3493 32.1161C17.3546 31.9027 17.4181 31.6948 17.5331 31.5149C17.648 31.3351 17.81 31.1901 18.0015 31.0956L19.7163 34.5273ZM9.66889 32.1967C9.68808 33.1634 10.2328 34.0746 11.1382 34.5273L12.8531 31.0956C13.0445 31.1901 13.2065 31.3351 13.3215 31.5149C13.4364 31.6948 13.5 31.9027 13.5053 32.1161L9.66889 32.1967ZM7.37858 24.1748C7.66631 24.3935 7.83703 24.5201 7.95596 24.616C8.0768 24.7158 8.05379 24.7119 8.00008 24.6429L11.0308 22.2912C10.6721 21.827 10.1158 21.4318 9.6804 21.1058L7.37858 24.1748ZM11.7213 23.5994C11.5717 23.2369 11.3818 22.742 11.0308 22.2912L8.00008 24.6429C7.97514 24.6084 7.96938 24.5911 7.99432 24.6429L8.06146 24.7925L8.17655 25.0668L11.7213 23.5994ZM21.1741 21.1058C20.7387 21.4318 20.1805 21.8289 19.8218 22.2912L22.8545 24.6429C22.8027 24.71 22.7777 24.7158 22.8986 24.6179C23.0175 24.5201 23.1863 24.3935 23.476 24.1768L21.1741 21.1058ZM22.678 25.0668L22.7931 24.7925L22.8602 24.6429C22.8852 24.5911 22.8794 24.6084 22.8545 24.6429L19.8218 22.2912C19.4708 22.7439 19.2828 23.2369 19.1332 23.6013L22.678 25.0668Z" fill="#242342"/>
<path d="M21.1666 24.9365C19.4683 26.073 17.4708 26.6796 15.4274 26.6796C13.3839 26.6796 11.3865 26.073 9.68817 24.9365" stroke="#242342" stroke-width="2"/>
<defs>
<filter id="filter0_d_2001_506" x="0" y="1" width="32" height="33" filterUnits="userSpaceOnUse" color-interpolation-filters="sRGB">
<feFlood flood-opacity="0" result="BackgroundImageFix"/>
<feColorMatrix in="SourceAlpha" type="matrix" values="0 0 0 0 0 0 0 0 0 0 0 0 0 0 0 0 0 0 127 0" result="hardAlpha"/>
<feOffset dy="4"/>
<feGaussianBlur stdDeviation="2"/>
<feComposite in2="hardAlpha" operator="out"/>
<feColorMatrix type="matrix" values="0 0 0 0 0 0 0 0 0 0 0 0 0 0 0 0 0 0 0.25 0"/>
<feBlend mode="normal" in2="BackgroundImageFix" result="effect1_dropShadow_2001_506"/>
<feBlend mode="normal" in="SourceGraphic" in2="effect1_dropShadow_2001_506" result="shape"/>
</filter>
</defs>
</svg>
