<svg width="27" height="36" viewBox="0 0 27 36" fill="none" xmlns="http://www.w3.org/2000/svg">
<path d="M23.0182 13.4273C23.0182 16.5673 21.5124 19.3545 19.1741 21.1058L21.476 24.1748C23.1469 22.9254 24.5031 21.3032 25.4369 19.4374C26.3706 17.5716 26.856 15.5137 26.8545 13.4273H23.0182ZM13.4273 3.83636C15.9709 3.83636 18.4104 4.84683 20.2091 6.64548C22.0077 8.44412 23.0182 10.8836 23.0182 13.4273H26.8545C26.8545 9.86614 25.4399 6.45086 22.9218 3.93276C20.4037 1.41465 16.9884 0 13.4273 0V3.83636ZM3.83637 13.4273C3.83637 10.8836 4.84683 8.44412 6.64548 6.64548C8.44412 4.84683 10.8836 3.83636 13.4273 3.83636V0C9.86614 0 6.45086 1.41465 3.93276 3.93276C1.41466 6.45086 3.44127e-06 9.86614 3.44127e-06 13.4273H3.83637ZM7.6804 21.1058C6.48595 20.2136 5.5164 19.0549 4.84902 17.7218C4.18163 16.3887 3.83487 14.9181 3.83637 13.4273H3.44127e-06C-0.00149124 15.5137 0.483937 17.5716 1.41767 19.4374C2.3514 21.3032 3.70767 22.9254 5.37858 24.1748L7.6804 21.1058ZM11.5033 32.1161C11.4425 29.1913 10.8382 26.3033 9.72135 23.5994L6.17655 25.0668C7.10879 27.3245 7.6171 29.7414 7.66889 32.1967L11.5033 32.1161ZM16.0015 31.0956C15.2022 31.4954 14.3209 31.7035 13.4273 31.7035C12.5337 31.7035 11.6523 31.4954 10.8531 31.0956L9.13822 34.5273C10.4699 35.1931 11.9384 35.5397 13.4273 35.5397C14.9162 35.5397 16.3846 35.1931 17.7163 34.5273L16.0015 31.0956ZM17.1332 23.6013C16.0159 26.3045 15.411 29.1918 15.3493 32.1161L19.1857 32.1967C19.2374 29.7414 19.7458 27.3245 20.678 25.0668L17.1332 23.6013ZM17.7163 34.5273C18.1502 34.3094 18.5164 33.9772 18.7753 33.5665C19.0343 33.1557 19.1762 32.6821 19.1857 32.1967L15.3493 32.1161C15.3546 31.9027 15.4181 31.6948 15.5331 31.5149C15.648 31.3351 15.81 31.1901 16.0015 31.0956L17.7163 34.5273ZM7.66889 32.1967C7.68808 33.1634 8.23284 34.0746 9.13822 34.5273L10.8531 31.0956C11.0445 31.1901 11.2065 31.3351 11.3215 31.5149C11.4364 31.6948 11.5 31.9027 11.5053 32.1161L7.66889 32.1967ZM5.37858 24.1748C5.66631 24.3935 5.83703 24.5201 5.95596 24.616C6.0768 24.7158 6.05379 24.7119 6.00008 24.6429L9.0308 22.2912C8.6721 21.827 8.11583 21.4318 7.6804 21.1058L5.37858 24.1748ZM9.72135 23.5994C9.57173 23.2369 9.38183 22.742 9.0308 22.2912L6.00008 24.6429C5.97514 24.6084 5.96939 24.5911 5.99432 24.6429L6.06146 24.7925L6.17655 25.0668L9.72135 23.5994ZM19.1741 21.1058C18.7387 21.4318 18.1805 21.8289 17.8218 22.2912L20.8545 24.6429C20.8027 24.71 20.7777 24.7158 20.8986 24.6179C21.0175 24.5201 21.1863 24.3935 21.476 24.1768L19.1741 21.1058ZM20.678 25.0668L20.7931 24.7925L20.8602 24.6429C20.8852 24.5911 20.8794 24.6084 20.8545 24.6429L17.8218 22.2912C17.4708 22.7439 17.2828 23.2369 17.1332 23.6013L20.678 25.0668Z" fill="#242342"/>
<path d="M19.1666 24.9365C17.4683 26.073 15.4708 26.6796 13.4274 26.6796C11.3839 26.6796 9.38647 26.073 7.68817 24.9365" stroke="#242342" stroke-width="2"/>
</svg>
