<svg width="41" height="41" viewBox="0 0 41 41" fill="none" xmlns="http://www.w3.org/2000/svg">
<path fill-rule="evenodd" clip-rule="evenodd" d="M25.26 26.6435L25.0933 27.0601C22.112 28.0558 18.888 28.0558 15.9067 27.0601L15.74 26.6435C15.5817 26.2601 15.5017 26.0668 15.3633 25.8901C15.2267 25.7118 14.9867 25.5318 14.5067 25.1735C12.826 23.9151 11.584 22.1597 10.9567 20.1561C10.3295 18.1525 10.3487 16.0022 11.0119 14.0101C11.675 12.0181 12.9482 10.2852 14.6512 9.05725C16.3542 7.82928 18.4005 7.16846 20.5 7.16846C22.5995 7.16846 24.6458 7.82928 26.3488 9.05725C28.0518 10.2852 29.325 12.0181 29.9881 14.0101C30.6513 16.0022 30.6705 18.1525 30.0433 20.1561C29.416 22.1597 28.174 23.9151 26.4933 25.1735C26.0133 25.5318 25.7733 25.7118 25.6367 25.8901C25.5 26.0685 25.42 26.2585 25.26 26.6435ZM16.9167 30.7768C17.0611 31.6568 17.1433 32.5446 17.1633 33.4401C17.165 33.5584 17.199 33.6741 17.2615 33.7745C17.3241 33.875 17.4129 33.9564 17.5183 34.0101C18.4441 34.473 19.4649 34.7141 20.5 34.7141C21.5351 34.7141 22.5559 34.473 23.4817 34.0101C23.5871 33.9564 23.6759 33.875 23.7385 33.7745C23.801 33.6741 23.835 33.5584 23.8367 33.4401C23.8567 32.5446 23.9389 31.6568 24.0833 30.7768C21.7191 31.2617 19.2809 31.2617 16.9167 30.7768Z" fill="#7E4E00"/>
</svg>
