<svg width="31" height="31" viewBox="0 0 31 31" fill="none" xmlns="http://www.w3.org/2000/svg">
<path fill-rule="evenodd" clip-rule="evenodd" d="M24.5417 3.875C25.1934 3.87479 25.8211 4.12094 26.299 4.5641C26.7769 5.00726 27.0697 5.61467 27.1185 6.26458L27.125 6.45833V12.9167C27.1252 13.5684 26.8791 14.1961 26.4359 14.674C25.9927 15.1519 25.3853 15.4447 24.7354 15.4935L24.5417 15.5H15.5V24.5417C15.5002 25.1934 15.2541 25.8211 14.8109 26.299C14.3677 26.7769 13.7603 27.0697 13.1104 27.1185L12.9167 27.125H6.45833C5.80659 27.1252 5.17885 26.8791 4.70096 26.4359C4.22307 25.9927 3.93034 25.3853 3.88146 24.7354L3.875 24.5417V6.45833C3.87479 5.80659 4.12094 5.17885 4.5641 4.70096C5.00726 4.22307 5.61467 3.93034 6.26458 3.88146L6.45833 3.875H24.5417ZM7.75 19.375H6.45833L6.30721 19.384C5.99327 19.4214 5.70393 19.5726 5.49399 19.809C5.28406 20.0453 5.16811 20.3505 5.16811 20.6667C5.16811 20.9828 5.28406 21.288 5.49399 21.5244C5.70393 21.7608 5.99327 21.9119 6.30721 21.9493L6.45833 21.9583H7.75L7.90112 21.9493C8.21506 21.9119 8.50441 21.7608 8.71434 21.5244C8.92428 21.288 9.04023 20.9828 9.04023 20.6667C9.04023 20.3505 8.92428 20.0453 8.71434 19.809C8.50441 19.5726 8.21506 19.4214 7.90112 19.384L7.75 19.375ZM7.75 14.2083H6.45833C6.12911 14.2087 5.81246 14.3348 5.57307 14.5608C5.33367 14.7868 5.18961 15.0956 5.17032 15.4243C5.15103 15.753 5.25795 16.0766 5.46926 16.329C5.68056 16.5815 5.98029 16.7437 6.30721 16.7826L6.45833 16.7917H7.75C8.07922 16.7913 8.39587 16.6652 8.63527 16.4392C8.87466 16.2132 9.01872 15.9044 9.03801 15.5757C9.05731 15.247 8.95038 14.9234 8.73907 14.671C8.52777 14.4185 8.22804 14.2563 7.90112 14.2174L7.75 14.2083ZM7.75 9.04167H6.45833C6.12911 9.04203 5.81246 9.16809 5.57307 9.3941C5.33367 9.6201 5.18961 9.92898 5.17032 10.2576C5.15103 10.5863 5.25795 10.9099 5.46926 11.1624C5.68056 11.4148 5.98029 11.5771 6.30721 11.616L6.45833 11.625H7.75C8.07922 11.6246 8.39587 11.4986 8.63527 11.2726C8.87466 11.0466 9.01872 10.7377 9.03801 10.409C9.05731 10.0804 8.95038 9.75676 8.73907 9.5043C8.52777 9.25184 8.22804 9.08959 7.90112 9.05071L7.75 9.04167ZM10.3333 5.16667C10.017 5.16671 9.71161 5.28286 9.47519 5.49309C9.23877 5.70332 9.08772 5.99301 9.05071 6.30721L9.04167 6.45833V7.75C9.04203 8.07922 9.16809 8.39587 9.3941 8.63527C9.6201 8.87466 9.92898 9.01872 10.2576 9.03801C10.5863 9.05731 10.9099 8.95038 11.1624 8.73907C11.4148 8.52777 11.5771 8.22804 11.616 7.90112L11.625 7.75V6.45833C11.625 6.11576 11.4889 5.78722 11.2467 5.54499C11.0044 5.30275 10.6759 5.16667 10.3333 5.16667ZM15.5 5.16667C15.1836 5.16671 14.8783 5.28286 14.6419 5.49309C14.4054 5.70332 14.2544 5.99301 14.2174 6.30721L14.2083 6.45833V7.75L14.2174 7.90112C14.2547 8.21506 14.4059 8.50441 14.6423 8.71434C14.8787 8.92428 15.1838 9.04023 15.5 9.04023C15.8162 9.04023 16.1213 8.92428 16.3577 8.71434C16.5941 8.50441 16.7453 8.21506 16.7826 7.90112L16.7917 7.75V6.45833L16.7826 6.30721C16.7456 5.99301 16.5946 5.70332 16.3581 5.49309C16.1217 5.28286 15.8164 5.16671 15.5 5.16667ZM20.6667 5.16667C20.3503 5.16671 20.0449 5.28286 19.8085 5.49309C19.5721 5.70332 19.4211 5.99301 19.384 6.30721L19.375 6.45833V7.75C19.3754 8.07922 19.5014 8.39587 19.7274 8.63527C19.9534 8.87466 20.2623 9.01872 20.591 9.03801C20.9196 9.05731 21.2432 8.95038 21.4957 8.73907C21.7482 8.52777 21.9104 8.22804 21.9493 7.90112L21.9583 7.75V6.45833C21.9583 6.11576 21.8222 5.78722 21.58 5.54499C21.3378 5.30275 21.0092 5.16667 20.6667 5.16667Z" fill="#003A70"/>
</svg>
