<svg width="27" height="27" viewBox="0 0 27 27" fill="none" xmlns="http://www.w3.org/2000/svg">
<path d="M23.8004 5.49655C22.6076 4.32856 20.6907 4.35904 19.5356 5.56437L19.305 5.805L12.0042 13.1058C10.8482 14.2618 8.9795 14.2794 7.80193 13.1455L7.18875 12.555L6.88007 12.2463C5.7085 11.0747 3.809 11.0747 2.63743 12.2463L2.12132 12.7624C0.949747 13.934 0.949747 15.8335 2.12132 17.0051L2.43 17.3138L7.4925 22.3763L7.7009 22.5937C8.86457 23.808 10.7989 23.8286 11.9882 22.6393L12.2513 22.3763L24.0638 10.5638L24.35 10.2775C25.5303 9.09722 25.5202 7.18048 24.3275 6.01267L23.8004 5.49655Z" fill="#294600"/>
</svg>
