<svg width="33" height="33" viewBox="0 0 33 33" fill="none" xmlns="http://www.w3.org/2000/svg">
<path d="M3.78812 20.2346L4.49899 22.8911C5.32949 25.9917 5.74612 27.5427 6.68799 28.5478C7.43138 29.3409 8.39311 29.8959 9.45174 30.1428C10.7937 30.4563 12.3447 30.0411 15.4467 29.2106C18.546 28.3801 20.097 27.9648 21.1021 27.0229C21.1855 26.9441 21.2662 26.8634 21.3441 26.7809C20.8758 26.7387 20.4103 26.6699 19.9499 26.5747C18.9929 26.3849 17.8557 26.0797 16.511 25.7194L16.3639 25.6796L16.3295 25.6713C14.8665 25.2781 13.6441 24.9508 12.6679 24.5988C11.6407 24.2276 10.7085 23.7697 9.91512 23.0272C8.82381 22.0047 8.06013 20.6817 7.72062 19.2253C7.47312 18.1679 7.54462 17.1312 7.73712 16.0573C7.92137 15.0274 8.25137 13.7927 8.64737 12.3146L9.38299 9.57281L9.40774 9.47656C6.76774 10.1874 5.37762 10.6082 4.45087 11.4758C3.65679 12.2198 3.10124 13.1825 2.85449 14.2423C2.54099 15.5829 2.95624 17.1339 3.78812 20.2346Z" fill="#2A26A6"/>
<path fill-rule="evenodd" clip-rule="evenodd" d="M28.6412 14.7331L27.929 17.3896C27.0971 20.4902 26.6819 22.0412 25.74 23.0464C24.9968 23.84 24.035 24.3955 22.9762 24.6427C22.8433 24.6739 22.7081 24.6977 22.5706 24.7142C21.3125 24.8696 19.7766 24.4585 16.9826 23.7105C13.882 22.8786 12.331 22.4634 11.3259 21.5215C10.532 20.7779 9.97649 19.8156 9.72949 18.7564C9.41599 17.4144 9.83124 15.8647 10.6631 12.7641L11.374 10.1076L11.7095 8.86324C12.3351 6.57249 12.7559 5.31162 13.563 4.44949C14.3064 3.65639 15.2681 3.10136 16.3267 2.85449C17.6687 2.54099 19.2197 2.95624 22.3217 3.78812C25.421 4.61862 26.972 5.03387 27.9771 5.97437C28.7712 6.71832 29.3267 7.68109 29.5735 8.74087C29.887 10.0829 29.4717 11.6325 28.6412 14.7331ZM15.1951 13.4819C15.2302 13.351 15.2907 13.2284 15.3732 13.121C15.4557 13.0135 15.5586 12.9234 15.676 12.8557C15.7933 12.788 15.9228 12.7441 16.0571 12.7265C16.1915 12.7089 16.3279 12.718 16.4587 12.7531L23.1 14.5337C23.2343 14.5656 23.3608 14.624 23.4721 14.7057C23.5833 14.7873 23.6771 14.8904 23.7478 15.0089C23.8184 15.1275 23.8646 15.259 23.8836 15.3957C23.9025 15.5323 23.8938 15.6714 23.858 15.8047C23.8222 15.938 23.76 16.0627 23.6751 16.1715C23.5902 16.2803 23.4844 16.371 23.3638 16.4381C23.2432 16.5053 23.1104 16.5475 22.9732 16.5624C22.8361 16.5773 22.6973 16.5645 22.5651 16.5247L15.9239 14.7455C15.6599 14.6746 15.4349 14.5018 15.2983 14.2652C15.1617 14.0285 15.1245 13.7459 15.1951 13.4819ZM14.1281 17.468C14.199 17.2041 14.3718 16.9791 14.6084 16.8424C14.8451 16.7058 15.1263 16.6687 15.3904 16.7392L19.3751 17.8076C19.51 17.8388 19.6373 17.8967 19.7493 17.9781C19.8613 18.0595 19.9558 18.1626 20.0271 18.2813C20.0985 18.4 20.1451 18.5318 20.1644 18.6689C20.1837 18.806 20.1751 18.9456 20.1393 19.0794C20.1035 19.2131 20.0411 19.3383 19.9558 19.4474C19.8706 19.5565 19.7642 19.6473 19.6431 19.7144C19.522 19.7815 19.3886 19.8236 19.2509 19.8381C19.1132 19.8525 18.974 19.8391 18.8416 19.7986L14.8569 18.7316C14.726 18.6965 14.6034 18.636 14.496 18.5535C14.3885 18.471 14.2984 18.3681 14.2307 18.2508C14.163 18.1334 14.1191 18.0039 14.1015 17.8696C14.0839 17.7353 14.093 17.5988 14.1281 17.468Z" fill="#2A26A6"/>
</svg>
